<?xml version="1.0" encoding="utf-8"?>
<!-- Generator: Adobe Illustrator 12.0.1, SVG Export Plug-In . SVG Version: 6.00 Build 51448)  -->
<!DOCTYPE svg PUBLIC "-//W3C//DTD SVG 1.1//EN" "http://www.w3.org/Graphics/SVG/1.1/DTD/svg11.dtd" [
	<!ENTITY ns_svg "http://www.w3.org/2000/svg">
	<!ENTITY ns_xlink "http://www.w3.org/1999/xlink">
]>
<svg  version="1.1" id="Layer_1" xmlns="&ns_svg;" xmlns:xlink="&ns_xlink;" width="720" height="432" viewBox="0 0 720 432"
	 overflow="visible" enable-background="new 0 0 720 432" xml:space="preserve">
<g id="flag">
	<rect fill="#BF0000" width="720" height="432"/>
	<rect fill="#FFFFFF" width="216" height="216"/>
</g>
<g id="tree">
	<path fill="#8B5C29" d="M114.15,170.029c0.014,5.968-0.477,11.827-0.515,17.716c-0.014,2.087,0.094,4.623,0.532,6.655
		c0.371,1.723,1.579,3.449,1.61,5.309c1.604,0.192,1.417,2.074,2.89,2.24c3.276,5.972-4.25,4.03-8.133,4.017
		c-2.596-0.009-5.317,0.471-7.708,0.374c-2.542-0.102-4.343-0.099-6.985,0.693c0.775-0.864,1.915-1.14,2.653-2.073
		c1.315-1.661,0.982-3.981,1.256-5.948c0.48-3.446,0.51-6.72,0.543-10.222c0.03-3.22,0.646-6.491,1.014-9.534
		c0.379-3.143,0.017-6.566,0.012-9.74"/>
	<path fill="#00A33D" d="M106.451,177.728c-0.659,0.771-2.116,2.905-3.317,2.956c-0.677,0.028-0.791-0.767-1.382-0.835
		c-1.293-0.15-2.95-0.131-4.254-0.084c-3.118,0.112-6.175,0.19-9.288-0.195c-5.419-0.671-9.691-0.84-14.821,1.004
		c-2.198,0.791-4.47,0.994-6.891,0.757c-2.634-0.257-5.513-0.324-8.1-0.917c-2.044-0.468-5.359-1.641-3.124-4.239
		c2.086-2.422,5.909-0.999,7.908-2.977c-5.916-0.576-11.514,1.969-17.245,1.207c-2.225-0.295-6.479-0.411-4.526-3.638
		c1.237-2.043,4.039-3.845,4.58-6.283c1.443-0.231,2.658-2.697,3.968-3.55c1.415-0.921,3.485-1.811,5.079-2.284
		c0.805-2.183-1.333-2.853-1.97-4.477c-0.942-2.404,1.583-3.115,2.159-5.085c0.276-0.067,0.552-0.133,0.829-0.197
		c0.064-0.276,0.129-0.554,0.196-0.83c0.945-0.081,2.306-1.621,2.98-2.273c0.959-0.927,3.269-2.896,3.555-3.886
		c-3.207,0.052-0.782-3.19,0.211-4.096c1.622-1.482,3.088-2.2,4.813-3.332c1.044-0.686,3.19-2.747,2.736-4.204
		c-0.56-1.798-3.338-1.085-4.04-2.892c-1.123-2.891,3.778-7.663,5.296-10.006c1.02-1.576,2.386-2.687,3.733-3.944
		c1.773-1.655,2.878-3.862,4.573-5.562c-3.283,0.325-6.411-0.641-9.504-0.528c-1.313-3.878,6.129-7.486,8.178-9.531
		c1.532-1.53,2.78-3.687,4.41-5.291c1.409-1.387,3.391-4.042,5.114-4.628c-2.75-0.049-5.117,2.07-7.951,1.488
		c-0.66-2.025,3.381-6.556,4.343-8.393c1.374-2.622,4.216-5.47,4.853-8.503c1.038-4.941-3.487-2.807-4.999-5.742
		c-1.485-2.881,4.017-4.102,4.961-5.451c0.809-1.155,0.862-3.811,0.021-4.947c-0.834-1.126-2.029-0.736-2.104-2.371
		c-0.132-2.932,3.591-5.725,4.49-8.142c0.585-1.572-0.176-3.076-0.337-4.579c-0.174-1.611,0.401-3.653,1.082-5.035
		c0.461-0.936,1.487-1.887,1.98-3.054c0.356-0.846,0.654-1.671,1.024-2.52c0.759-1.744,1.573-3.308,2.331-5.197
		c0.955-2.379,3.654-3.548,4.824-5.754c0.821-1.548,0.292-3.377,1.16-4.991c0.654-1.212,1.341-1.934,1.723-3.256
		c-0.185-0.106-0.278-0.277-0.284-0.515l4.106-3.592c0.703,1.062,0.862,2.783,1.405,3.979c0.49,1.08,0.988,2.156,1.548,3.204
		c0.768,1.439,1.522,2.849,2.084,4.2c1.38,3.323,2.236,6.437,3.909,9.645c0.758,1.453,1.75,2.673,2.355,4.079
		c0.779,1.809,0.788,3.547,1.253,5.419c0.43,1.733,1.391,3.207,1.798,4.881c0.417,1.71,2.248,4.455,2.006,6.087
		c-0.787,0.03-1.67,0.012-2.447,0.181c1.553,3.237,5.245,5.556,7.414,8.364c1.064,1.38,1.237,2.384,1.79,3.822
		c0.419,1.092,1.137,2.117,1.003,3.32c-0.06,0.541-0.567,1.026-0.594,1.754c-0.285,0.056-0.569,0.113-0.853,0.173
		c-0.58,1.76,0.959,3.569,1.704,5.048c1.098,2.178,0.684,2.021-0.389,4.066c-1.116,2.13-0.914,3.538-0.366,5.683
		c0.306,1.2,0.131,1.724,1.006,2.83c0.613,0.774,1.451,1.217,1.646,2.202c0.275,0.072,0.553,0.134,0.833,0.189
		c0.268,1.856,3.144,3.968,2.693,6.083c-0.533,2.495-3.82,1.715-0.563,4.817c2.303,2.195,8.194,5.46,7.652,9.463
		c-2.047,0.115-3.539,1.29-5.513,1.193c0.25,1.777,3.247,2.755,4.385,4.131c1.618,1.956,2.957,4.649,5.307,5.831
		c2.662,1.338,11.009,4.133,4.625,7.38c-1.801,0.915-10.238,0.596-9.015,3.635c1.022,2.539,5.035,1.692,1.314,4.172
		c-2.718,1.812-4.869,1.769-8.094,2.18c0.958,1.79,4.134,4.129,5.709,4.846c1.166,0.532,2.744,0.302,4.004,0.662
		c3.18,0.906,5.853,2.899,8.916,4.088c2.311,0.897,4.728,1.903,6.799,2.995c1.963,1.036,3.902,3.257,5.921,4.206
		c-2.742,1.363-8.363,3.684-11.745,3.556c-1.226-0.047-1.769-0.463-3.103-0.333c-1.995,0.195-3.461,0.956-5.506,0.78
		c3.402,1.388,8.062,0.741,10.97,3.062c2.256,1.8,2.247,4.787,5.378,5.921c2.095,0.758,4.279,0.754,6.477,1.388
		c1.771,0.512,3.354,0.634,5.062,1.057c1.856,0.458,1.959,1.229,2.508,2.864c-0.933,0.627-2.056,0.844-3.046,1.4
		c-1.701,0.958-2.596,2.857-4.1,3.766c-2.162,1.306-6.182,2.48-8.712,2.148c-3.652-0.479-6.491,0.374-10.233,0.496
		c-2.258,0.075-4.304,1.029-6.563,1.107c1.459,1.327,2.812,2.674,4.452,3.811c1.666,1.155,3.636,1.812,5.079,3.412
		c-0.984,2.847-8.668,1.344-10.879,0.849c-1.995-0.448-3.829-0.442-5.926-0.451c-3.283-0.015-5.539-0.708-8.729-1.309
		c-9.681-1.825-16.693-10.305-27.197-8.89c-0.019,0.789,0.374,1.167,0.973,1.464L106.451,177.728z"/>
	<path fill="none" stroke="#006B33" stroke-width="1.5397" d="M118.001,29.916c-0.382-1.103-3.47-1.18-4.574-1.952
		c-1.298-0.911-2.558-2.588-3.907-0.599c-1.131,1.668-0.273,4.078-1.324,5.873c-1.233,2.107-4.634,1.883-5.207-0.627"/>
	<path fill="none" stroke="#006B33" stroke-width="1.5397" d="M107.608,39.539c-0.077,1.591,4.543,6.798,5.747,7.468
		c1.642,0.916,3.179-1.266,4.899-0.539c3.225,1.361,4.618,2.913,7.061,5.239"/>
	<path fill="none" stroke="#006B33" stroke-width="1.5397" d="M104.558,44.764C103.882,45.12,105.235,44.398,104.558,44.764
		c-1.155,0.624-2.13,0.521-3.31,1.078c-2.33,1.098-3.84,3.151-5.38,5.096c-1.655,2.091-3.565,4.323-4.772,6.615
		c0.231,0.113,0.475,0.138,0.73,0.078"/>
	<path fill="none" stroke="#006B33" stroke-width="1.5397" d="M106.068,54.551c-0.181-0.234-0.339-0.482-0.474-0.747
		c-0.876,0.163-1.375,1.496-2.051,2.131c-1.067,1.002-2.611,1.184-3.66,2.048c-0.828,0.683-1.086,1.732-1.761,2.562
		c-0.632,0.776-0.861,1.104-1.37,1.985c-0.88,1.522-1.647,2.205-3.155,3.035c-1.14,0.627-3.231,1.232-4.03,2.179
		c-0.068,0.229,0.043,0.323,0.334,0.279"/>
	<path fill="none" stroke="#006B33" stroke-width="1.5397" d="M110.303,55.706c-0.368,0.975,3.373,3.602,4.377,4.388
		c0.975,0.764,2.097,1.138,3.128,1.792c1.311,0.83,2.429,1.998,3.717,2.884c1.483,1.02,3.125,2.493,4.929,2.869
		c1.714,0.357,2.921-0.153,4.634,0"/>
	<path fill="none" stroke="#006B33" stroke-width="1.5397" d="M108.378,73.797c0.75,3.047-17.708,14.374-20.071,14.09"/>
	<path fill="none" stroke="#006B33" stroke-width="1.5397" d="M112.997,82.65c-1.18,2.346,4.677,7.298,6.092,8.438
		c1.474,1.185,2.878,0.948,4.573,1.516c2.311,0.772,3.296,0.658,5.725,0.463c1.7-0.137,3.44,0.424,5.136,0.643
		c1.212,0.156,2.568,0.05,2.725,0.875"/>
	<path fill="none" stroke="#006B33" stroke-width="1.5397" d="M124.93,96.893c1.206,1.318,3.311,3.283,5.069,4.671
		c1.926,1.521,4.239,2.442,6.208,3.95c1.156,0.884,2.372,1.81,3.856,2.085c1.008,0.188,0.504-0.938,0.842,0.417"/>
	<path fill="none" stroke="#006B33" stroke-width="1.5397" d="M146.208,128.994c-0.495-1.117-2.519-2.891-3.585-3.398
		c-3.223-1.535-2.636-2.376-6.055-2.809c-4.169-0.527-6.55-3.458-10.218-5.003c-2.602-1.096-4.937,1.46-7.737,1.08
		c-2.122-0.289-5.078-4.083-3.691-6.189"/>
	<path fill="none" stroke="#006B33" stroke-width="1.5397" d="M73.35,106.517c5.109-0.011,10.924,0.766,15.844-0.607
		c3.229-0.902,6.602-2.027,9.999-1.683c2.223,0.225,4.293,1.097,6.462,1.443c3.431,0.547,4.214-1.465,6.985-3.051
		c-0.009,0.145-0.019,0.288-0.027,0.433"/>
	<path fill="none" stroke="#006B33" stroke-width="1.5397" d="M70.547,130.269c0.657-0.446,2.339-5.08,3.909-5.717
		c2.8-1.135,5.625-2.115,8.379-3.361c0.546-0.248,1.099-0.774,1.758-0.785c3.287-0.05,0.574,4.797-0.387,6.142
		c1.01,0.165,2.217,0.563,3.229,0.482c1.439-0.115,3.65-1.387,4.923-1.838c2.214-0.786,4.425-1.376,6.694-1.965
		c0.045-0.308,0.074-0.618,0.086-0.929"/>
	<path fill="none" stroke="#006B33" stroke-width="1.5397" d="M55.038,158.648c0.251-0.859,5.427-3.989,6.076-4.572
		c1.27-1.142,2.156-1.988,3.741-2.713c2.299-1.055,4.358-2.312,6.578-3.568c1.966-1.114,3.774-3.081,6.073-3.502
		c2.591-0.477,5.116-0.534,7.729-1.231c2.161-0.577,4.241-1.485,6.403-2.014c2.819-0.689,3.819,0.214,5.943-0.354
		c4.445-1.188,8.729-3.906,11.708-7.425c0.988-1.166,1.546-3.478,3.24-3.815c-0.439,0.376-0.925,0.686-1.457,0.928"/>
	<path fill="none" stroke="#006B33" stroke-width="1.5397" d="M63.183,173.197c0.307-0.585,4.84-3.9,5.677-4.283
		c4.632-2.125,10.522-4.451,14.021-8.215c1.771-1.905,3.771-3.07,5.906-4.541c2.309-1.591,4.418-4.229,6.959-5.374
		c1.872-0.843,4.074-0.214,6.049-0.343c1.279-0.083,5.19-0.59,5.814-1.968"/>
	<path fill="none" stroke="#006B33" stroke-width="1.5397" d="M120.311,137.695c2.857-0.051,4.474,1.317,6.959,2.683
		c4.719,2.593,9.71,5.372,13.775,8.915c1.875,1.635,2.681,3.513,4.969,4.583c1.75,0.817,3.326,1.931,5.362,1.461
		c-0.09-0.106-0.181-0.212-0.271-0.319"/>
	<path fill="none" stroke="#006B33" stroke-width="1.5397" d="M148.025,178.498c-0.556-0.689-2.521-1.222-3.512-1.532
		c-1.632-0.512-3.196-0.654-4.648-1.61c-1.429-0.944-2.832-2.264-4.146-3.387c-2.927-2.505-5.353-5.521-8.395-7.863
		c-1.429-1.1-6.871-3.033-5.475-5.624"/>
</g>
</svg>
